<?xml version="1.0" encoding="UTF-8" standalone="no"?><!-- Generator: Gravit.io --><svg xmlns="http://www.w3.org/2000/svg" xmlns:xlink="http://www.w3.org/1999/xlink" style="isolation:isolate" viewBox="0 0 1280 800" width="1280pt" height="800pt"><defs><clipPath id="_clipPath_ebwRTBxZqZv13IGSs45NdG2OyrGkZ8Kj"><rect width="1280" height="800"/></clipPath></defs><g clip-path="url(#_clipPath_ebwRTBxZqZv13IGSs45NdG2OyrGkZ8Kj)"><g><g><path d=" M 1284.227 764 L 1244.416 755.616 C 1205.591 746.654 1124.492 730.755 1085.262 690.244 C 1046.031 649.733 1043.744 587.504 1056.972 516.155 C 1068.722 445.674 1095.988 366.072 1055.034 326.574 C 1015.065 286.497 909.338 285.077 843.016 260.491 C 776.694 235.906 749.778 188.155 696.51 155.897 C 644.226 123.059 563.128 107.16 484.492 89.814 C 405.856 72.468 324.757 56.569 272.474 23.731 C 219.205 -8.528 192.289 -56.278 231.131 -142.685 C 268.987 -228.512 375.064 -354.444 360.462 -409.433 C 345.86 -464.423 215.505 -451.365 187.85 -498.681 C 161.672 -546.866 238.195 -655.424 225.317 -711.427 C 211.454 -766.85 105.727 -768.271 52.863 -768.981 L 0 -769.691 L 551.675 -1094 L 565.133 -1070.125 C 578.592 -1046.25 605.508 -998.499 632.424 -950.749 C 659.34 -902.999 686.256 -855.249 713.173 -807.498 C 740.089 -759.748 767.005 -711.998 793.921 -664.247 C 820.837 -616.497 847.754 -568.747 874.67 -520.996 C 901.586 -473.246 928.502 -425.496 955.418 -377.746 C 982.335 -329.995 1009.251 -282.245 1036.167 -234.495 C 1063.083 -186.744 1090 -138.994 1116.916 -91.244 C 1143.832 -43.494 1170.748 4.257 1197.664 52.007 C 1224.581 99.757 1251.497 147.508 1278.413 195.258 C 1305.329 243.008 1332.245 290.759 1359.162 338.509 C 1386.078 386.259 1412.994 434.009 1439.91 481.76 C 1466.826 529.51 1493.743 577.26 1507.201 601.135 L 1520.659 625.011 L 1284.227 764 Z " fill="rgb(0,11,118)"/></g><rect x="1149" y="-134.672" width="150" height="362.532" transform="matrix(1,0,0,1,0,0)" fill="rgb(0,11,118)"/></g></g></svg>