<?xml version="1.0" standalone="no"?><svg xmlns="http://www.w3.org/2000/svg" viewBox="0 0 1440 320"><path fill="#000b76" fill-opacity="1" d="M0,32L14.1,42.7C28.2,53,56,75,85,112C112.9,149,141,203,169,208C197.6,213,226,171,254,176C282.4,181,311,235,339,245.3C367.1,256,395,224,424,181.3C451.8,139,480,85,508,101.3C536.5,117,565,203,593,218.7C621.2,235,649,181,678,176C705.9,171,734,213,762,229.3C790.6,245,819,235,847,224C875.3,213,904,203,932,181.3C960,160,988,128,1016,144C1044.7,160,1073,224,1101,213.3C1129.4,203,1158,117,1186,101.3C1214.1,85,1242,139,1271,165.3C1298.8,192,1327,192,1355,165.3C1383.5,139,1412,85,1426,58.7L1440,32L1440,320L1425.9,320C1411.8,320,1384,320,1355,320C1327.1,320,1299,320,1271,320C1242.4,320,1214,320,1186,320C1157.6,320,1129,320,1101,320C1072.9,320,1045,320,1016,320C988.2,320,960,320,932,320C903.5,320,875,320,847,320C818.8,320,791,320,762,320C734.1,320,706,320,678,320C649.4,320,621,320,593,320C564.7,320,536,320,508,320C480,320,452,320,424,320C395.3,320,367,320,339,320C310.6,320,282,320,254,320C225.9,320,198,320,169,320C141.2,320,113,320,85,320C56.5,320,28,320,14,320L0,320Z"></path></svg>